<svg xmlns="http://www.w3.org/2000/svg" viewBox="0 0 64 64" aria-label="Conduit Systems"><title>Conduit Systems</title><rect x="1" y="1" width="62" height="62" rx="14" ry="14" fill="#FBFBFE" stroke="#B7C8D7" stroke-opacity="0.4" stroke-width="1"></rect><g fill="#FF4529"><circle cx="32" cy="9" r="3.6"></circle><circle cx="43.5" cy="12.08" r="3.6"></circle><circle cx="51.92" cy="20.5" r="3.6"></circle><circle cx="55" cy="32" r="3.6"></circle><circle cx="51.92" cy="43.5" r="3.6"></circle><circle cx="43.5" cy="51.92" r="3.6"></circle><circle cx="32" cy="55" r="3.6"></circle><circle cx="20.5" cy="51.92" r="3.6"></circle><circle cx="12.08" cy="43.5" r="3.6"></circle><circle cx="9" cy="32" r="3.6"></circle><circle cx="12.08" cy="20.5" r="3.6"></circle><circle cx="20.5" cy="12.08" r="3.6"></circle><circle cx="42.39" cy="26" r="2.6"></circle><circle cx="42.39" cy="38" r="2.6"></circle><circle cx="32" cy="44" r="2.6"></circle><circle cx="21.61" cy="38" r="2.6"></circle><circle cx="21.61" cy="26" r="2.6"></circle><circle cx="32" cy="20" r="2.6"></circle></g></svg>