<svg xmlns="http://www.w3.org/2000/svg" viewBox="0 0 1200 630" width="1200" height="630">
  <defs>
    <clipPath id="frame"><rect x="0" y="0" width="1200" height="630"></rect></clipPath>
  </defs>
  
  <rect x="0" y="0" width="1200" height="630" fill="#FBFBFE"></rect>
  
  
  <g clip-path="url(#frame)" opacity="1">
    <g transform="translate(1100 315) scale(0.55) translate(-800 -800)">
      <circle cx="800" cy="200" r="6.4" fill="#FF4529"></circle><circle cx="904.19" cy="209.12" r="6.41" fill="#FF4529"></circle><circle cx="1005.21" cy="236.18" r="6.44" fill="#FF4529"></circle><circle cx="1100" cy="280.38" r="6.48" fill="#FF4529"></circle><circle cx="1185.67" cy="340.37" r="6.54" fill="#FF4529"></circle><circle cx="1259.63" cy="414.33" r="6.61" fill="#FF4529"></circle><circle cx="1319.62" cy="500" r="6.7" fill="#FF4529"></circle><circle cx="1363.82" cy="594.79" r="6.79" fill="#FF4529"></circle><circle cx="1390.88" cy="695.81" r="6.9" fill="#FF4529"></circle><circle cx="1400" cy="800" r="7" fill="#FF4529"></circle><circle cx="1390.88" cy="904.19" r="7.1" fill="#FF4529"></circle><circle cx="1363.82" cy="1005.21" r="7.21" fill="#FF4529"></circle><circle cx="1319.62" cy="1100" r="7.3" fill="#FF4529"></circle><circle cx="1259.63" cy="1185.67" r="7.39" fill="#FF4529"></circle><circle cx="1185.67" cy="1259.63" r="7.46" fill="#FF4529"></circle><circle cx="1100" cy="1319.62" r="7.52" fill="#FF4529"></circle><circle cx="1005.21" cy="1363.82" r="7.56" fill="#FF4529"></circle><circle cx="904.19" cy="1390.88" r="7.59" fill="#FF4529"></circle><circle cx="800" cy="1400" r="7.6" fill="#FF4529"></circle><circle cx="695.81" cy="1390.88" r="7.59" fill="#FF4529"></circle><circle cx="594.79" cy="1363.82" r="7.56" fill="#FF4529"></circle><circle cx="500" cy="1319.62" r="7.52" fill="#FF4529"></circle><circle cx="414.33" cy="1259.63" r="7.46" fill="#FF4529"></circle><circle cx="340.37" cy="1185.67" r="7.39" fill="#FF4529"></circle><circle cx="280.38" cy="1100" r="7.3" fill="#FF4529"></circle><circle cx="236.18" cy="1005.21" r="7.21" fill="#FF4529"></circle><circle cx="209.12" cy="904.19" r="7.1" fill="#FF4529"></circle><circle cx="200" cy="800" r="7" fill="#FF4529"></circle><circle cx="209.12" cy="695.81" r="6.9" fill="#FF4529"></circle><circle cx="236.18" cy="594.79" r="6.79" fill="#FF4529"></circle><circle cx="280.38" cy="500" r="6.7" fill="#FF4529"></circle><circle cx="340.37" cy="414.33" r="6.61" fill="#FF4529"></circle><circle cx="414.33" cy="340.37" r="6.54" fill="#FF4529"></circle><circle cx="500" cy="280.38" r="6.48" fill="#FF4529"></circle><circle cx="594.79" cy="236.18" r="6.44" fill="#FF4529"></circle><circle cx="695.81" cy="209.12" r="6.41" fill="#FF4529"></circle><circle cx="856.44" cy="262.96" r="9.25" fill="#FF4529"></circle><circle cx="966.87" cy="286.43" r="9.29" fill="#FF4529"></circle><circle cx="1070" cy="332.35" r="9.35" fill="#FF4529"></circle><circle cx="1161.33" cy="398.7" r="9.44" fill="#FF4529"></circle><circle cx="1236.87" cy="482.6" r="9.56" fill="#FF4529"></circle><circle cx="1293.31" cy="580.36" r="9.7" fill="#FF4529"></circle><circle cx="1328.2" cy="687.73" r="9.84" fill="#FF4529"></circle><circle cx="1340" cy="800" r="10" fill="#FF4529"></circle><circle cx="1328.2" cy="912.27" r="10.16" fill="#FF4529"></circle><circle cx="1293.31" cy="1019.64" r="10.31" fill="#FF4529"></circle><circle cx="1236.87" cy="1117.4" r="10.44" fill="#FF4529"></circle><circle cx="1161.33" cy="1201.3" r="10.56" fill="#FF4529"></circle><circle cx="1070" cy="1267.65" r="10.65" fill="#FF4529"></circle><circle cx="966.87" cy="1313.57" r="10.71" fill="#FF4529"></circle><circle cx="856.44" cy="1337.04" r="10.75" fill="#FF4529"></circle><circle cx="743.56" cy="1337.04" r="10.75" fill="#FF4529"></circle><circle cx="633.13" cy="1313.57" r="10.71" fill="#FF4529"></circle><circle cx="530" cy="1267.65" r="10.65" fill="#FF4529"></circle><circle cx="438.67" cy="1201.3" r="10.56" fill="#FF4529"></circle><circle cx="363.13" cy="1117.4" r="10.44" fill="#FF4529"></circle><circle cx="306.69" cy="1019.64" r="10.31" fill="#FF4529"></circle><circle cx="271.8" cy="912.27" r="10.16" fill="#FF4529"></circle><circle cx="260" cy="800" r="10" fill="#FF4529"></circle><circle cx="271.8" cy="687.73" r="9.84" fill="#FF4529"></circle><circle cx="306.69" cy="580.36" r="9.7" fill="#FF4529"></circle><circle cx="363.13" cy="482.6" r="9.56" fill="#FF4529"></circle><circle cx="438.67" cy="398.7" r="9.44" fill="#FF4529"></circle><circle cx="530" cy="332.35" r="9.35" fill="#FF4529"></circle><circle cx="633.13" cy="286.43" r="9.29" fill="#FF4529"></circle><circle cx="743.56" cy="262.96" r="9.25" fill="#FF4529"></circle><circle cx="800" cy="330.02" r="13.22" fill="#FF4529"></circle><circle cx="912.38" cy="343.66" r="13.25" fill="#FF4529"></circle><circle cx="1018.31" cy="383.8" r="13.33" fill="#FF4529"></circle><circle cx="1111.63" cy="448.2" r="13.45" fill="#FF4529"></circle><circle cx="1186.83" cy="533.09" r="13.62" fill="#FF4529"></circle><circle cx="1239.48" cy="633.45" r="13.81" fill="#FF4529"></circle><circle cx="1266.56" cy="743.41" r="14.02" fill="#FF4529"></circle><circle cx="1266.56" cy="856.59" r="14.24" fill="#FF4529"></circle><circle cx="1239.48" cy="966.55" r="14.46" fill="#FF4529"></circle><circle cx="1186.83" cy="1066.91" r="14.65" fill="#FF4529"></circle><circle cx="1111.63" cy="1151.8" r="14.81" fill="#FF4529"></circle><circle cx="1018.31" cy="1216.2" r="14.94" fill="#FF4529"></circle><circle cx="912.38" cy="1256.34" r="15.02" fill="#FF4529"></circle><circle cx="800" cy="1269.98" r="15.04" fill="#FF4529"></circle><circle cx="687.62" cy="1256.34" r="15.02" fill="#FF4529"></circle><circle cx="581.69" cy="1216.2" r="14.94" fill="#FF4529"></circle><circle cx="488.37" cy="1151.8" r="14.81" fill="#FF4529"></circle><circle cx="413.17" cy="1066.91" r="14.65" fill="#FF4529"></circle><circle cx="360.52" cy="966.55" r="14.46" fill="#FF4529"></circle><circle cx="333.44" cy="856.59" r="14.24" fill="#FF4529"></circle><circle cx="333.44" cy="743.41" r="14.02" fill="#FF4529"></circle><circle cx="360.52" cy="633.45" r="13.81" fill="#FF4529"></circle><circle cx="413.17" cy="533.09" r="13.62" fill="#FF4529"></circle><circle cx="488.37" cy="448.2" r="13.45" fill="#FF4529"></circle><circle cx="581.69" cy="383.8" r="13.33" fill="#FF4529"></circle><circle cx="687.62" cy="343.66" r="13.25" fill="#FF4529"></circle><circle cx="855.22" cy="409.08" r="19.93" fill="#FF4529"></circle><circle cx="962.38" cy="440.14" r="20.02" fill="#FF4529"></circle><circle cx="1058.15" cy="501.3" r="20.2" fill="#FF4529"></circle><circle cx="1132.86" cy="587.7" r="20.45" fill="#FF4529"></circle><circle cx="1179.27" cy="690.35" r="20.76" fill="#FF4529"></circle><circle cx="1194.8" cy="800" r="21.09" fill="#FF4529"></circle><circle cx="1179.27" cy="909.65" r="21.42" fill="#FF4529"></circle><circle cx="1132.86" cy="1012.3" r="21.72" fill="#FF4529"></circle><circle cx="1058.15" cy="1098.7" r="21.97" fill="#FF4529"></circle><circle cx="962.38" cy="1159.86" r="22.15" fill="#FF4529"></circle><circle cx="855.22" cy="1190.92" r="22.25" fill="#FF4529"></circle><circle cx="744.78" cy="1190.92" r="22.25" fill="#FF4529"></circle><circle cx="637.62" cy="1159.86" r="22.15" fill="#FF4529"></circle><circle cx="541.85" cy="1098.7" r="21.97" fill="#FF4529"></circle><circle cx="467.14" cy="1012.3" r="21.72" fill="#FF4529"></circle><circle cx="420.73" cy="909.65" r="21.42" fill="#FF4529"></circle><circle cx="405.2" cy="800" r="21.09" fill="#FF4529"></circle><circle cx="420.73" cy="690.35" r="20.76" fill="#FF4529"></circle><circle cx="467.14" cy="587.7" r="20.45" fill="#FF4529"></circle><circle cx="541.85" cy="501.3" r="20.2" fill="#FF4529"></circle><circle cx="637.62" cy="440.14" r="20.02" fill="#FF4529"></circle><circle cx="744.78" cy="409.08" r="19.93" fill="#FF4529"></circle><circle cx="800" cy="484.79" r="27.4" fill="#FF4529"></circle><circle cx="904.3" cy="502.55" r="27.5" fill="#FF4529"></circle><circle cx="1001.62" cy="557.71" r="27.78" fill="#FF4529"></circle><circle cx="1074.6" cy="645.24" r="28.2" fill="#FF4529"></circle><circle cx="1110.83" cy="747.66" r="28.72" fill="#FF4529"></circle><circle cx="1110.83" cy="852.34" r="29.28" fill="#FF4529"></circle><circle cx="1074.6" cy="954.76" r="29.8" fill="#FF4529"></circle><circle cx="1001.62" cy="1042.29" r="30.22" fill="#FF4529"></circle><circle cx="904.3" cy="1097.45" r="30.5" fill="#FF4529"></circle><circle cx="800" cy="1115.21" r="30.6" fill="#FF4529"></circle><circle cx="695.7" cy="1097.45" r="30.5" fill="#FF4529"></circle><circle cx="598.38" cy="1042.29" r="30.22" fill="#FF4529"></circle><circle cx="525.4" cy="954.76" r="29.8" fill="#FF4529"></circle><circle cx="489.17" cy="852.34" r="29.28" fill="#FF4529"></circle><circle cx="489.17" cy="747.66" r="28.72" fill="#FF4529"></circle><circle cx="525.4" cy="645.24" r="28.2" fill="#FF4529"></circle><circle cx="598.38" cy="557.71" r="27.78" fill="#FF4529"></circle><circle cx="695.7" cy="502.55" r="27.5" fill="#FF4529"></circle>
    </g>
  </g>
  
  
  <text x="88" y="370" font-family="&#39;Plus Jakarta Sans&#39;, system-ui, sans-serif" font-weight="700" font-size="200" letter-spacing="-2" fill="#040316">CONDUIT</text>
  
  
  <rect x="0" y="622" width="1200" height="8" fill="#FF4529"></rect>
</svg>